<svg width="100" height="82" viewBox="0 0 100 82" fill="none" xmlns="http://www.w3.org/2000/svg">
<path d="M50 0C69.6197 0 86.6046 8.87949 94.8252 21.8123C99.5141 29.1891 92.5339 37 83.793 37H16.207C7.46611 37 0.485873 29.1891 5.17483 21.8123C13.3954 8.87949 30.3803 0 50 0Z" fill="#D9D9D9"/>
<path d="M50 82C34.727 82 21.0506 79.2369 11.8625 74.8797C3.5718 70.9481 8.25706 63 17.4327 63L82.5673 63C91.7429 63 96.4282 70.9481 88.1375 74.8797C78.9494 79.2369 65.273 82 50 82Z" fill="#D9D9D9"/>
<path fill-rule="evenodd" clip-rule="evenodd" d="M60.3636 43H7.5C3.35787 43 0 46.3579 0 50.5V50.5C0 54.6421 3.35786 58 7.5 58H92.5C96.6421 58 100 54.6421 100 50.5V50.5C100 46.3579 96.6421 43 92.5 43H76.7273L69.0909 54.4474L60.3636 43Z" fill="#D9D9D9"/>
</svg>
